<?xml version="1.0" encoding="UTF-8" standalone="no"?>
<svg
   xmlns:dc="http://purl.org/dc/elements/1.1/"
   xmlns:cc="http://creativecommons.org/ns#"
   xmlns:rdf="http://www.w3.org/1999/02/22-rdf-syntax-ns#"
   xmlns:svg="http://www.w3.org/2000/svg"
   xmlns="http://www.w3.org/2000/svg"
   id="svg975"
   version="1.1"
   viewBox="0 0 6.7027779 8.4666662"
   height="8.4666662mm"
   width="6.7027779mm">
  <defs
     id="defs969" />
  <metadata
     id="metadata972">
    <rdf:RDF>
      <cc:Work
         rdf:about="">
        <dc:format>image/svg+xml</dc:format>
        <dc:type
           rdf:resource="http://purl.org/dc/dcmitype/StillImage" />
        <dc:title></dc:title>
      </cc:Work>
    </rdf:RDF>
  </metadata>
  <g
     transform="translate(55.512104,30.025)"
     id="layer1">
    <g
       id="g1041">
      <g
         id="g901"
         transform="matrix(0.35277777,0,0,-0.35277777,-51.631548,-26.85)">
        <path
           d="M 0,0 H -11 V -15 H 0 c 0,0 8,0 8,7.5 C 8,0 0,0 0,0"
           style="fill:#00d796;fill-opacity:1;fill-rule:nonzero;stroke:none"
           id="path903" />
      </g>
      <g
         id="g905"
         transform="matrix(0.35277777,0,0,-0.35277777,-55.408739,-30.025)">
        <path
           d="M 0,0 -0.293,-0.293 V -1.707 L 1.414,0 Z"
           style="fill:#5a82ff;fill-opacity:1;fill-rule:nonzero;stroke:none"
           id="path907" />
      </g>
      <g
         id="g909"
         transform="matrix(0.35277777,0,0,-0.35277777,-54.350406,-30.025)">
        <path
           d="M 0,0 -3.293,-3.293 V -4.707 L 1.414,0 Z"
           style="fill:#5a82ff;fill-opacity:1;fill-rule:nonzero;stroke:none"
           id="path911" />
      </g>
      <g
         id="g913"
         transform="matrix(0.35277777,0,0,-0.35277777,-53.292073,-30.025)">
        <path
           d="M 0,0 -6.293,-6.293 V -7.707 L 1.414,0 Z"
           style="fill:#5a82ff;fill-opacity:1;fill-rule:nonzero;stroke:none"
           id="path915" />
      </g>
      <g
         id="g917"
         transform="matrix(0.35277777,0,0,-0.35277777,-51.984325,-30.025)">
        <path
           d="M 0,0 H -0.707 L -10,-9.293 v -1.414 L 0.662,-0.045 C 0.254,0 0,0 0,0"
           style="fill:#5a82ff;fill-opacity:1;fill-rule:nonzero;stroke:none"
           id="path919" />
      </g>
      <g
         id="g921"
         transform="matrix(0.35277777,0,0,-0.35277777,-51.278064,-29.922342)">
        <path
           d="m 0,0 -12.002,-12.002 v -0.707 h 0.707 L 1.069,-0.345 C 0.699,-0.199 0.34,-0.086 0,0"
           style="fill:#5a82ff;fill-opacity:1;fill-rule:nonzero;stroke:none"
           id="path923" />
      </g>
      <g
         id="g925"
         transform="matrix(0.35277777,0,0,-0.35277777,-50.523085,-29.618988)">
        <path
           d="m 0,0 -11.849,-11.849 h 1.414 L 0.82,-0.594 C 0.556,-0.372 0.284,-0.169 0,0"
           style="fill:#5a82ff;fill-opacity:1;fill-rule:nonzero;stroke:none"
           id="path927" />
      </g>
      <g
         id="g929"
         transform="matrix(0.35277777,0,0,-0.35277777,-49.957935,-29.12584)">
        <path
           d="m 0,0 -10.451,-10.451 h 1.414 L 0.56,-0.854 C 0.396,-0.54 0.205,-0.259 0,0"
           style="fill:#5a82ff;fill-opacity:1;fill-rule:nonzero;stroke:none"
           id="path931" />
      </g>
      <g
         id="g933"
         transform="matrix(0.35277777,0,0,-0.35277777,-49.605651,-28.419755)">
        <path
           d="m 0,0 -8.45,-8.45 h 1.414 l 7.243,7.242 C 0.167,-0.775 0.101,-0.37 0,0"
           style="fill:#5a82ff;fill-opacity:1;fill-rule:nonzero;stroke:none"
           id="path935" />
      </g>
      <g
         id="g937"
         transform="matrix(0.35277777,0,0,-0.35277777,-51.4686,-25.498473)">
        <path
           d="M 0,0 C 0.611,0.118 1.343,0.318 2.08,0.666 L 4.998,3.584 C 5.237,4.132 5.404,4.76 5.479,5.479 Z"
           style="fill:#5a82ff;fill-opacity:1;fill-rule:nonzero;stroke:none"
           id="path939" />
      </g>
    </g>
  </g>
</svg>
