<svg xmlns="http://www.w3.org/2000/svg" viewBox="0 0 48 48"><defs><style>.cls-1{fill:#1e1e1e;}.cls-2{fill:#fff;}</style></defs><title>menu</title><g id="Livello_2" data-name="Livello 2"><g id="Livello_1-2" data-name="Livello 1"><path class="cls-1" d="M0,0,48,48V4a4,4,0,0,0-4-4Z"/><path class="cls-2" d="M34,12a2,2,0,1,0,2,2A2,2,0,0,0,34,12Zm0,3a1,1,0,1,1,1-1A1,1,0,0,1,34,15Z"/><path class="cls-2" d="M34,6a2,2,0,1,0,2,2A2,2,0,0,0,34,6Zm0,3a1,1,0,1,1,1-1A1,1,0,0,1,34,9Z"/><path class="cls-2" d="M34,18a2,2,0,1,0,2,2A2,2,0,0,0,34,18Zm0,3a1,1,0,1,1,1-1A1,1,0,0,1,34,21Z"/></g></g></svg>